<?xml version="1.0" encoding="UTF-8"?>
<svg width="48px" height="44px" viewBox="0 0 48 44" version="1.1" xmlns="http://www.w3.org/2000/svg" xmlns:xlink="http://www.w3.org/1999/xlink">
    <!-- Generator: Sketch 47.1 (45422) - http://www.bohemiancoding.com/sketch -->
    <title>Group</title>
    <desc>Created with Sketch.</desc>
    <defs></defs>
    <g id="Page-1" stroke="none" stroke-width="1" fill="none" fill-rule="evenodd">
        <g id="Resources" transform="translate(-900.000000, -579.000000)" fill-rule="nonzero" fill="#333333">
            <g id="Group-3-Copy-8" transform="translate(868.000000, 523.000000)">
                <g id="Group" transform="translate(32.000000, 52.000000)">
                    <g id="Group-5" transform="translate(0.000000, 4.000000)">
                        <path d="M25,12.5 C25,13.0522847 24.5522847,13.5 24,13.5 C23.4477153,13.5 23,13.0522847 23,12.5 C23,6.70101013 18.2989899,2 12.5,2 C6.70101013,2 2,6.70101013 2,12.5 C2,21.0979995 9.49224534,31.0333683 24.5943911,42.1958239 C25.0385253,42.524097 25.1324493,43.1502568 24.8041761,43.5943911 C24.475903,44.0385253 23.8497432,44.1324493 23.4056089,43.8041761 C7.84108799,32.299965 0,21.9020005 0,12.5 C0,5.59644063 5.59644063,0 12.5,0 C19.4035594,0 25,5.59644063 25,12.5 Z" id="Oval"></path>
                        <path d="M24.5943911,43.8041761 C24.1502568,44.1324493 23.524097,44.0385253 23.1958239,43.5943911 C22.8675507,43.1502568 22.9614747,42.524097 23.4056089,42.1958239 C38.5077547,31.0333683 46,21.0979995 46,12.5 C46,6.70101013 41.2989899,2 35.5,2 C29.7010101,2 25,6.70101013 25,12.5 C25,13.0522847 24.5522847,13.5 24,13.5 C23.4477153,13.5 23,13.0522847 23,12.5 C23,5.59644063 28.5964406,0 35.5,0 C42.4035594,0 48,5.59644063 48,12.5 C48,21.9020005 40.158912,32.299965 24.5943911,43.8041761 Z" id="Oval-Copy"></path>
                    </g>
                </g>
            </g>
        </g>
    </g>
</svg>