<?xml version="1.0" encoding="UTF-8"?>
<svg width="100%" height="100%" viewBox="0 0 62 64" version="1.1" xmlns="http://www.w3.org/2000/svg" xmlns:xlink="http://www.w3.org/1999/xlink">
    <!-- Generator: Sketch 48.2 (47327) - http://www.bohemiancoding.com/sketch -->
    <title>Group</title>
    <desc>Created with Sketch.</desc>
    <defs></defs>
    <g id="Features" stroke="none" stroke-width="1" fill="none" fill-rule="evenodd" transform="translate(-86.000000, -86.000000)">
        <g id="Group" transform="translate(86.000000, 86.000000)">
            <path d="M21.5246667,61.0678369 L21.5246667,59.1921702 L23.06,59.1921702 L24.3303333,60.9561702 C25.6136667,60.9138369 26.9063333,60.8848369 28.206,60.8671702 L26.5723333,58.6858369 C27.068,58.4878369 27.5096667,58.2118369 27.8963333,57.8581702 C28.2803333,57.5075036 28.5846667,57.0628369 28.805,56.5275036 C29.0256667,55.9885036 29.1406667,55.3458369 29.144,54.5958369 C29.1406667,53.8788369 29.035,53.2555036 28.8336667,52.7331702 C28.629,52.2105036 28.3473333,51.7755036 27.9893333,51.4218369 C27.6306667,51.0678369 27.2183333,50.7888369 26.7513333,50.5811702 C26.2843333,50.3701702 25.7853333,50.2208369 25.2546667,50.1331702 C24.7233333,50.0425036 24.186,49.9968369 23.6356667,50.0001702 L17.9743333,50.0001702 L17.9743333,61.2671702 C19.1496667,61.1908369 20.3326667,61.1238369 21.5246667,61.0678369 L21.5246667,61.0678369 L21.5246667,61.0678369 Z M56.7616667,60.6528369 L51.7966667,60.6528369 L51.496,61.4901702 L51.4956667,61.4901702 L51.348,61.9025036 C51.018,61.8675036 50.6883333,61.8325036 50.356,61.7991702 C49.5396667,61.7158369 48.714,61.6381702 47.882,61.5648369 L52.3593333,50.0001702 L56.1976667,50.0001702 L61.8696667,63.3351702 C60.4283333,63.0921702 58.964,62.8658369 57.4796667,62.6568369 L56.7616667,60.6528369 L56.7616667,60.6528369 L56.7616667,60.6528369 Z M52.8443333,57.7315036 L55.715,57.7315036 L55.5213333,57.1901702 L54.6243333,54.6351702 C54.5856667,54.5281702 54.5473333,54.4111702 54.509,54.2878369 C54.4703333,54.1678369 54.432,54.0215036 54.3936667,53.8561702 C54.355,53.6905036 54.3166667,53.4891702 54.2783333,53.2521702 C54.24,53.4891702 54.2016667,53.6905036 54.1636667,53.8561702 C54.125,54.0215036 54.0866667,54.1678369 54.0483333,54.2878369 C54.0096667,54.4111702 53.9713333,54.5281702 53.933,54.6351702 L52.9013333,57.5715036 L52.8443333,57.7315036 L52.8443333,57.7315036 L52.8443333,57.7315036 Z M10.057,60.6528369 L5.09166667,60.6528369 L4.79133333,61.4901702 L4.791,61.4901702 L4.37233333,62.6585036 C2.894,62.8671702 1.43533333,63.0921702 0,63.3341702 L5.65466667,50.0001702 L9.49333333,50.0001702 L13.9703333,61.5648369 C13.0723333,61.6438369 12.1823333,61.7281702 11.302,61.8188369 L11.1396667,61.8358369 C10.927,61.8581702 10.7156667,61.8805036 10.505,61.9035036 L10.057,60.6528369 L10.057,60.6528369 L10.057,60.6528369 Z M6.14,57.7315036 L9.01066667,57.7315036 L8.81666667,57.1901702 L7.91933333,54.6351702 C7.88066667,54.5281702 7.84266667,54.4111702 7.80433333,54.2878369 C7.76566667,54.1678369 7.72733333,54.0215036 7.689,53.8561702 C7.65066667,53.6905036 7.61233333,53.4891702 7.574,53.2521702 C7.53533333,53.4891702 7.497,53.6905036 7.45866667,53.8561702 C7.42033333,54.0215036 7.382,54.1678369 7.34366667,54.2878369 C7.305,54.4111702 7.26666667,54.5281702 7.22833333,54.6351702 L6.197,57.5715036 L6.14,57.7315036 L6.14,57.7315036 L6.14,57.7315036 Z M35.743,50.0001702 L36.5103333,52.1421702 L36.511,52.1421702 L37.9163333,56.0605036 L38.948,58.9975036 C38.9863333,59.1045036 39.0246667,59.2211702 39.0633333,59.3448369 C39.1016667,59.4648369 39.14,59.6108369 39.1783333,59.7761702 C39.2163333,59.9418369 39.255,60.1431702 39.2933333,60.3801702 C39.3316667,60.1431702 39.37,59.9418369 39.4086667,59.7761702 C39.447,59.6108369 39.4853333,59.4648369 39.524,59.3448369 C39.5623333,59.2211702 39.6003333,59.1045036 39.6386667,58.9975036 L40.536,56.4421702 L42.844,50.0001702 L46.49,50.0001702 L42.1746667,61.1631702 C40.24,61.0538369 38.283,60.9731702 36.3063333,60.9198369 L32.0963333,50.0001702 L35.743,50.0001702 L35.743,50.0001702 L35.743,50.0001702 Z M21.5246667,53.1161702 L23.7896667,53.1161702 C24.1316667,53.1161702 24.4293333,53.1745036 24.685,53.2911702 C24.9406667,53.4081702 25.1396667,53.5835036 25.28,53.8171702 C25.424,54.0508369 25.4943333,54.3428369 25.4973333,54.6935036 C25.4943333,55.0441702 25.424,55.3361702 25.28,55.5698369 C25.1396667,55.8035036 24.9406667,55.9788369 24.685,56.0955036 C24.4293333,56.2125036 24.1316667,56.2708369 23.7896667,56.2708369 L21.5246667,56.2708369 L21.5246667,53.1161702 L21.5246667,53.1161702 L21.5246667,53.1161702 Z" id="Fill-13-Copy" fill="#333333"></path>
            <g id="Group-2" transform="translate(13.000000, 0.000000)" fill="#18D3B9">
                <path d="M18.0913333,12.6103333 C14.6563333,12.6103333 11.872,15.395 11.872,18.8303333 C11.872,21.2676667 13.274,23.3773333 15.3163333,24.3973333 L12.0676667,32.4303333 C11.208,32.4756667 10.3506667,32.5313333 9.49666667,32.597 C6.26866667,32.735 3.099,32.9493333 0,33.2366667 C1.77466667,29.067 3.549,24.8976667 5.32333333,20.728 L5.41433333,20.5126667 L5.43633333,20.4613333 C7.607,20.662 9.80433333,20.6893333 12.0586667,20.3476667 C9.92933333,20.0803333 7.814,19.6813333 5.97466667,19.1963333 C8.698,12.7976667 11.4203333,6.39866667 14.1433333,0 L22.0393333,0 C24.7626667,6.39866667 27.485,12.7976667 30.2083333,19.1963333 C28.369,19.6813333 26.2536667,20.0803333 24.124,20.3476667 C26.3786667,20.6893333 28.5756667,20.662 30.7466667,20.4613333 L30.7683333,20.5126667 L30.8596667,20.728 C32.6343333,24.8976667 34.4086667,29.067 36.183,33.2366667 C33.084,32.9493333 29.914,32.735 26.6863333,32.597 C25.832,32.5313333 24.975,32.4756667 24.1153333,32.4303333 L20.8663333,24.3973333 C22.9086667,23.3773333 24.311,21.2676667 24.311,18.8303333 C24.311,15.395 21.5263333,12.6103333 18.0913333,12.6103333" id="Fill-14-Copy"></path>
                <path d="M29.3436667,14.5279196 C30.115,14.8475862 30.6816667,15.2689196 30.9133333,15.7289196 L30.9123333,15.7289196 C30.986,15.8755862 31.0243333,16.0249196 31.0243333,16.1769196 C31.0243333,16.5562529 30.7876667,16.9209196 30.3513333,17.2615862 C30.1443333,17.4169196 29.887,17.5692529 29.574,17.7162529 L29.5633333,17.7469196 C27.4146667,18.8282529 23.1156667,19.5662529 18.162,19.5662529 C13.2086667,19.5662529 8.90966667,18.8282529 6.761,17.7469196 L6.75033333,17.7162529 C6.43666667,17.5689196 6.179,17.4162529 5.97166667,17.2609196 C5.536,16.9205862 5.29966667,16.5559196 5.29966667,16.1769196 C5.29966667,15.7725862 5.569,15.3845862 6.06233333,15.0249196 L6.072,15.0182529 L6.07733333,15.0142529 C6.32933333,14.8355862 6.63433333,14.6715862 6.98066667,14.5279196 C7.47433333,14.2502529 8.81233333,12.2765862 8.252,12.3345862 C7.78,12.4195862 7.32566667,12.5085862 6.889,12.6019196 L6.889,12.5982529 C6.01933333,12.7822529 5.21766667,12.9875862 4.496,13.2102529 C2.63066667,13.7782529 1.31233333,14.4552529 0.706666667,15.2322529 C0.462,15.5372529 0.333333333,15.8529196 0.333333333,16.1769196 C0.333333333,16.5325862 0.489,16.8789196 0.782333333,17.2115862 L0.783666667,17.2125862 L0.797333333,17.2282529 C2.14366667,18.7759196 6.21333333,19.8139196 10.3866667,20.3375862 L10.3683333,20.3325862 C12.723,20.6295862 15.367,20.7965862 18.162,20.7965862 C20.9573333,20.7965862 23.6013333,20.6295862 25.9563333,20.3325862 L25.9376667,20.3375862 C30.113,19.8139196 34.1843333,18.7749196 35.5286667,17.2262529 L35.5393333,17.2145862 L35.545,17.2075862 C35.8353333,16.8772529 35.9896667,16.5332529 35.9906667,16.1802529 L35.991,16.1769196 L35.991,16.1752529 C35.9906667,16.0245862 35.9616667,15.8759196 35.907,15.7289196 L35.9013333,15.7289196 C35.361,14.2675862 32.435,13.1195862 28.0726667,12.3345862 C27.512,12.2765862 28.8493333,14.2502529 29.3436667,14.5279196" id="Fill-15-Copy"></path>
            </g>
        </g>
    </g>
</svg>