<?xml version="1.0" encoding="UTF-8"?>
<svg width="40px" height="40px" viewBox="0 0 40 40" version="1.1" xmlns="http://www.w3.org/2000/svg" xmlns:xlink="http://www.w3.org/1999/xlink">
    <!-- Generator: Sketch 47.1 (45422) - http://www.bohemiancoding.com/sketch -->
    <title>Group</title>
    <desc>Created with Sketch.</desc>
    <defs></defs>
    <g id="Page-1" stroke="none" stroke-width="1" fill="none" fill-rule="evenodd">
        <g id="Resources" transform="translate(-640.000000, -579.000000)" fill-rule="nonzero" fill="#333333">
            <g id="Group-3-Copy-6" transform="translate(604.000000, 523.000000)">
                <g id="Group" transform="translate(32.000000, 52.000000)">
                    <path d="M13,6 C9.13400675,6 6,9.13400675 6,13 C6,16.8659932 9.13400675,20 13,20 L35,20 C38.8659932,20 42,16.8659932 42,13 C42,9.13400675 38.8659932,6 35,6 L13,6 Z M13,4 L35,4 C39.9705627,4 44,8.02943725 44,13 C44,17.9705627 39.9705627,22 35,22 L13,22 C8.02943725,22 4,17.9705627 4,13 C4,8.02943725 8.02943725,4 13,4 Z" id="Rectangle-6"></path>
                    <path d="M35,22 C30.0294373,22 26,17.9705627 26,13 C26,8.02943725 30.0294373,4 35,4 C39.9705627,4 44,8.02943725 44,13 C44,17.9705627 39.9705627,22 35,22 Z M35,20 C38.8659932,20 42,16.8659932 42,13 C42,9.13400675 38.8659932,6 35,6 C31.1340068,6 28,9.13400675 28,13 C28,16.8659932 31.1340068,20 35,20 Z" id="Oval-7"></path>
                    <path d="M13,28 C9.13400675,28 6,31.1340068 6,35 C6,38.8659932 9.13400675,42 13,42 L35,42 C38.8659932,42 42,38.8659932 42,35 C42,31.1340068 38.8659932,28 35,28 L13,28 Z M13,26 L35,26 C39.9705627,26 44,30.0294373 44,35 C44,39.9705627 39.9705627,44 35,44 L13,44 C8.02943725,44 4,39.9705627 4,35 C4,30.0294373 8.02943725,26 13,26 Z" id="Rectangle-6"></path>
                    <path d="M13,44 C8.02943725,44 4,39.9705627 4,35 C4,30.0294373 8.02943725,26 13,26 C17.9705627,26 22,30.0294373 22,35 C22,39.9705627 17.9705627,44 13,44 Z M13,42 C16.8659932,42 20,38.8659932 20,35 C20,31.1340068 16.8659932,28 13,28 C9.13400675,28 6,31.1340068 6,35 C6,38.8659932 9.13400675,42 13,42 Z" id="Oval-7"></path>
                </g>
            </g>
        </g>
    </g>
</svg>