<?xml version="1.0" encoding="UTF-8"?>
<svg width="48px" height="36px" viewBox="0 0 48 36" version="1.1" xmlns="http://www.w3.org/2000/svg" xmlns:xlink="http://www.w3.org/1999/xlink">
    <!-- Generator: Sketch 47.1 (45422) - http://www.bohemiancoding.com/sketch -->
    <title>Group</title>
    <desc>Created with Sketch.</desc>
    <defs></defs>
    <g id="Page-1" stroke="none" stroke-width="1" fill="none" fill-rule="evenodd">
        <g id="Resources" transform="translate(-636.000000, -319.000000)" fill-rule="nonzero" fill="#333333">
            <g id="Group-3-Copy-4" transform="translate(604.000000, 259.000000)">
                <g id="Group" transform="translate(32.000000, 52.000000)">
                    <path d="M4,8 C4.55228475,8 5,8.44771525 5,9 C5,9.55228475 4.55228475,10 4,10 C2.8954305,10 2,10.8954305 2,12 C2,12.5522847 1.55228475,13 1,13 C0.44771525,13 0,12.5522847 0,12 C0,9.790861 1.790861,8 4,8 Z" id="Oval-2"></path>
                    <path d="M27,8 C27.5522847,8 28,8.44771525 28,9 C28,9.55228475 27.5522847,10 27,10 C25.8954305,10 25,10.8954305 25,12 C25,12.5522847 24.5522847,13 24,13 C23.4477153,13 23,12.5522847 23,12 C23,9.790861 24.790861,8 27,8 Z" id="Oval-2"></path>
                    <path d="M4,10 C3.44771525,10 3,9.55228475 3,9 C3,8.44771525 3.44771525,8 4,8 L21,8 C21.5522847,8 22,8.44771525 22,9 C22,9.55228475 21.5522847,10 21,10 L4,10 Z" id="Line"></path>
                    <path d="M27,10 C26.4477153,10 26,9.55228475 26,9 C26,8.44771525 26.4477153,8 27,8 L44,8 C44.5522847,8 45,8.44771525 45,9 C45,9.55228475 44.5522847,10 44,10 L27,10 Z" id="Line"></path>
                    <path d="M4,40 C3.44771525,40 3,39.5522847 3,39 C3,38.4477153 3.44771525,38 4,38 L21,38 C21.5522847,38 22,38.4477153 22,39 C22,39.5522847 21.5522847,40 21,40 L4,40 Z" id="Line"></path>
                    <path d="M27,40 C26.4477153,40 26,39.5522847 26,39 C26,38.4477153 26.4477153,38 27,38 L44,38 C44.5522847,38 45,38.4477153 45,39 C45,39.5522847 44.5522847,40 44,40 L27,40 Z" id="Line"></path>
                    <path d="M48,12 C48,12.5522847 47.5522847,13 47,13 C46.4477153,13 46,12.5522847 46,12 C46,10.8954305 45.1045695,10 44,10 C43.4477153,10 43,9.55228475 43,9 C43,8.44771525 43.4477153,8 44,8 C46.209139,8 48,9.790861 48,12 Z" id="Oval-2"></path>
                    <path d="M25,12 C25,12.5522847 24.5522847,13 24,13 C23.4477153,13 23,12.5522847 23,12 C23,10.8954305 22.1045695,10 21,10 C20.4477153,10 20,9.55228475 20,9 C20,8.44771525 20.4477153,8 21,8 C23.209139,8 25,9.790861 25,12 Z" id="Oval-2"></path>
                    <path d="M0,36 C0,35.4477153 0.44771525,35 1,35 C1.55228475,35 2,35.4477153 2,36 C2,37.1045695 2.8954305,38 4,38 C4.55228475,38 5,38.4477153 5,39 C5,39.5522847 4.55228475,40 4,40 C1.790861,40 0,38.209139 0,36 Z" id="Oval-2-Copy"></path>
                    <path d="M44,40 C43.4477153,40 43,39.5522847 43,39 C43,38.4477153 43.4477153,38 44,38 C45.1045695,38 46,37.1045695 46,36 C46,35.4477153 46.4477153,35 47,35 C47.5522847,35 48,35.4477153 48,36 C48,38.209139 46.209139,40 44,40 Z" id="Oval-2-Copy"></path>
                    <path d="M27,38 C27.5522847,38 28,38.4477153 28,39 C28,39.5522847 27.5522847,40 27,40 C25.8954305,40 25,40.8954305 25,42 C25,42.5522847 24.5522847,43 24,43 C23.4477153,43 23,42.5522847 23,42 C23,39.790861 24.790861,38 27,38 Z" id="Oval-2"></path>
                    <path d="M25,42 C25,42.5522847 24.5522847,43 24,43 C23.4477153,43 23,42.5522847 23,42 C23,40.8954305 22.1045695,40 21,40 C20.4477153,40 20,39.5522847 20,39 C20,38.4477153 20.4477153,38 21,38 C23.209139,38 25,39.790861 25,42 Z" id="Oval-2"></path>
                    <path d="M0,12 C0,11.4477153 0.44771525,11 1,11 C1.55228475,11 2,11.4477153 2,12 L2,36 C2,36.5522847 1.55228475,37 1,37 C0.44771525,37 0,36.5522847 0,36 L0,12 Z" id="Line-2"></path>
                    <path d="M23,12 C23,11.4477153 23.4477153,11 24,11 C24.5522847,11 25,11.4477153 25,12 L25,43 C25,43.5522847 24.5522847,44 24,44 C23.4477153,44 23,43.5522847 23,43 L23,12 Z" id="Line-2"></path>
                    <path d="M46,12 C46,11.4477153 46.4477153,11 47,11 C47.5522847,11 48,11.4477153 48,12 L48,36 C48,36.5522847 47.5522847,37 47,37 C46.4477153,37 46,36.5522847 46,36 L46,12 Z" id="Line-2"></path>
                </g>
            </g>
        </g>
    </g>
</svg>