<?xml version="1.0" encoding="UTF-8"?>
<svg width="100%" height="100%" viewBox="0 0 64 60" version="1.1" xmlns="http://www.w3.org/2000/svg" xmlns:xlink="http://www.w3.org/1999/xlink">
    <!-- Generator: Sketch 48.2 (47327) - http://www.bohemiancoding.com/sketch -->
    <title>platform</title>
    <desc>Created with Sketch.</desc>
    <defs>
        <linearGradient x1="100%" y1="100%" x2="0%" y2="0%" id="linearGradient-1">
            <stop stop-color="#24EAC9" offset="0%"></stop>
            <stop stop-color="#00FA9A" offset="100%"></stop>
        </linearGradient>
        <path d="M40,58 L24,58 C21.790861,58 20,56.209139 20,54 L20,50 L20,14 L20,10 C20,7.790861 21.790861,6 24,6 L40,6 C42.209139,6 44,7.790861 44,10 L44,14 L40,14 L24,14 L22,14 L22,50 L24,50 L40,50 L42,50 L42,17 C42,16.4477153 42.4477153,16 43,16 C43.5522847,16 44,16.4477153 44,17 L44,50 L44,54 C44,56.209139 42.209139,58 40,58 Z" id="path-2"></path>
        <filter x="-25.0%" y="-11.5%" width="150.0%" height="123.1%" filterUnits="objectBoundingBox" id="filter-3">
            <feOffset dx="0" dy="0" in="SourceAlpha" result="shadowOffsetOuter1"></feOffset>
            <feGaussianBlur stdDeviation="2" in="shadowOffsetOuter1" result="shadowBlurOuter1"></feGaussianBlur>
            <feColorMatrix values="0 0 0 0 0   0 0 0 0 0   0 0 0 0 0  0 0 0 0.16 0" type="matrix" in="shadowBlurOuter1"></feColorMatrix>
        </filter>
    </defs>
    <g id="Features" stroke="none" stroke-width="1" fill="none" fill-rule="evenodd" transform="translate(-688.000000, -259.000000)">
        <g id="platform" transform="translate(688.000000, 257.000000)">
            <path d="M16,50 C17.1045695,50 18,50.8954305 18,52 C18,53.1045695 17.1045695,54 16,54 L2,54 C0.8954305,54 0,53.1045695 0,52 L0,12 C0,10.8954305 0.8954305,10 2,10 L62,10 C63.1045695,10 64,10.8954305 64,12 L64,52 C64,53.1045695 63.1045695,54 62,54 L44,54 L44,50 L60,50 L60,14 L4,14 L4,50 L16,50 Z" id="Combined-Shape" fill="url(#linearGradient-1)"></path>
            <g id="Combined-Shape" fill="black" fill-opacity="1">
                <use filter="url(#filter-3)" xlink:href="#path-2"></use>
            </g>
            <rect id="Rectangle-18" fill="#FFFFFF" x="22" y="14" width="22" height="36"></rect>
            <path d="M40,58 L24,58 C21.790861,58 20,56.209139 20,54 L20,50 L20,14 L20,8 C20,6.8954305 20.8954305,6 22,6 L42,6 C43.1045695,6 44,6.8954305 44,8 L44,14 L42,14 L24,14 L22,14 L22,50 L24,50 L40,50 L42,50 L42,19 C42,18.4477153 42.4477153,18 43,18 C43.5522847,18 44,18.4477153 44,19 L44,50 L44,54 C44,56.209139 42.209139,58 40,58 Z" id="Combined-Shape" fill="url(#linearGradient-1)"></path>
        </g>
    </g>
</svg>