<?xml version="1.0" encoding="UTF-8"?>
<svg width="100%" height="100%" viewBox="0 0 64 44" version="1.1" xmlns="http://www.w3.org/2000/svg" xmlns:xlink="http://www.w3.org/1999/xlink">
    <!-- Generator: Sketch 48.2 (47327) - http://www.bohemiancoding.com/sketch -->
    <title>quality</title>
    <desc>Created with Sketch.</desc>
    <defs>
        <linearGradient x1="100%" y1="100%" x2="0%" y2="0%" id="linearGradient-1">
            <stop stop-color="#24EAC9" offset="0%"></stop>
            <stop stop-color="#00FA9A" offset="100%"></stop>
        </linearGradient>
        <rect id="path-2" x="2" y="31" width="18" height="8" rx="1"></rect>
        <filter x="-33.3%" y="-75.0%" width="166.7%" height="250.0%" filterUnits="objectBoundingBox" id="filter-3">
            <feOffset dx="0" dy="0" in="SourceAlpha" result="shadowOffsetOuter1"></feOffset>
            <feGaussianBlur stdDeviation="2" in="shadowOffsetOuter1" result="shadowBlurOuter1"></feGaussianBlur>
            <feColorMatrix values="0 0 0 0 0   0 0 0 0 0   0 0 0 0 0  0 0 0 0.16 0" type="matrix" in="shadowBlurOuter1"></feColorMatrix>
        </filter>
    </defs>
    <g id="Features" stroke="none" stroke-width="1" fill="none" fill-rule="evenodd" transform="translate(-688.000000, -553.000000)">
        <g id="quality" transform="translate(688.000000, 541.000000)">
            <path d="M15.4142136,42.5857864 C16.1952621,43.366835 16.1952621,44.633165 15.4142136,45.4142136 C14.633165,46.1952621 13.366835,46.1952621 12.5857864,45.4142136 L0.585786438,33.4142136 C-0.195262146,32.633165 -0.195262146,31.366835 0.585786438,30.5857864 L12.5857864,18.5857864 C13.366835,17.8047379 14.633165,17.8047379 15.4142136,18.5857864 C16.1952621,19.366835 16.1952621,20.633165 15.4142136,21.4142136 L4.82842712,32 L15.4142136,42.5857864 Z M48.5857864,21.4142136 C47.8047379,20.633165 47.8047379,19.366835 48.5857864,18.5857864 C49.366835,17.8047379 50.633165,17.8047379 51.4142136,18.5857864 L63.4142136,30.5857864 C64.1952621,31.366835 64.1952621,32.633165 63.4142136,33.4142136 L51.4142136,45.4142136 C50.633165,46.1952621 49.366835,46.1952621 48.5857864,45.4142136 C47.8047379,44.633165 47.8047379,43.366835 48.5857864,42.5857864 L59.1715729,32 L48.5857864,21.4142136 Z" id="Combined-Shape" fill="url(#linearGradient-1)" fill-rule="nonzero"></path>
            <g id="Group-7" transform="translate(33.000000, 31.500000) rotate(-345.000000) translate(-33.000000, -31.500000) translate(22.000000, 12.000000)">
                <path d="M10,14.0052393 C8.74687752,14.423486 7.84354889,15.6062511 7.84354889,17 C7.84354889,18.7432598 9.25674019,20.1564511 11,20.1564511 C12.7432598,20.1564511 14.1564511,18.7432598 14.1564511,17 C14.1564511,15.6062511 13.2531225,14.423486 12,14.0052393 L12,0.745352201 C12,0.618766591 12.0794926,0.505816118 12.1986501,0.463091523 C12.3545384,0.407196935 12.5262223,0.488257829 12.5821169,0.644146097 L12.5822522,0.644097576 C14.6403732,6.38413281 16.2796224,10.1694336 17.5,12 C18.6271948,13.6907923 19.8735055,15.143353 21.2389318,16.3576822 C21.6339225,16.7089634 21.6872869,17.3069854 21.3607347,17.7226534 L21.360758,17.7226717 C20.3424107,19.0189252 19.5554914,20.7780346 19,23 C18.3333333,25.6666667 18,28.3333333 18,31 L12,31 L4,31 C4,28.3333333 3.66666667,25.6666667 3,23 C2.44450865,20.7780346 1.65758932,19.0189252 0.639242008,17.7226717 L0.639265283,17.7226534 C0.312713143,17.3069854 0.366077493,16.7089634 0.761068164,16.3576822 C2.12649455,15.143353 3.37280516,13.6907923 4.5,12 C5.72037759,10.1694336 7.35962684,6.38413281 9.41774776,0.644097576 L9.41788308,0.644146097 C9.47377767,0.488257829 9.64546159,0.407196935 9.80134986,0.463091523 C9.92050743,0.505816118 10,0.618766591 10,0.745352201 L10,14.0052393 Z" id="Combined-Shape" fill="url(#linearGradient-1)"></path>
                <g id="Rectangle-23">
                    <use fill="black" fill-opacity="1" filter="url(#filter-3)" xlink:href="#path-2"></use>
                    <use fill="url(#linearGradient-1)" fill-rule="evenodd" xlink:href="#path-2"></use>
                </g>
            </g>
        </g>
    </g>
</svg>