<?xml version="1.0" encoding="UTF-8"?>
<svg width="48px" height="48px" viewBox="0 0 48 48" version="1.1" xmlns="http://www.w3.org/2000/svg" xmlns:xlink="http://www.w3.org/1999/xlink">
    <!-- Generator: Sketch 47.1 (45422) - http://www.bohemiancoding.com/sketch -->
    <title>Group</title>
    <desc>Created with Sketch.</desc>
    <defs></defs>
    <g id="Page-1" stroke="none" stroke-width="1" fill="none" fill-rule="evenodd">
        <g id="Resources" transform="translate(-900.000000, -311.000000)" fill-rule="nonzero" fill="#333333">
            <g id="Group-3-Copy-7" transform="translate(868.000000, 259.000000)">
                <g id="Group" transform="translate(32.000000, 52.000000)">
                    <g>
                        <path d="M26.5621092,22.7000401 C28.1945398,23.5313139 30.0425361,24 32,24 C38.627417,24 44,18.627417 44,12 C44,5.372583 38.627417,0 32,0 C30.0425361,0 28.1945398,0.468686066 26.5621092,1.29995995 C27.5353603,1.53214578 28.4584216,1.8936742 29.3121173,2.36536944 C30.1673878,2.127272 31.0688309,2 32,2 C37.5228475,2 42,6.4771525 42,12 C42,17.5228475 37.5228475,22 32,22 C31.0688309,22 30.1673878,21.872728 29.3121173,21.6346306 C28.4584216,22.1063258 27.5353603,22.4678542 26.5621092,22.7000401 Z" id="Combined-Shape"></path>
                        <path d="M18.5621092,22.7000401 C20.1945398,23.5313139 22.0425361,24 24,24 C30.627417,24 36,18.627417 36,12 C36,5.372583 30.627417,0 24,0 C22.0425361,0 20.1945398,0.468686066 18.5621092,1.29995995 C19.5353603,1.53214578 20.4584216,1.8936742 21.3121173,2.36536944 C22.1673878,2.127272 23.0688309,2 24,2 C29.5228475,2 34,6.4771525 34,12 C34,17.5228475 29.5228475,22 24,22 C23.0688309,22 22.1673878,21.872728 21.3121173,21.6346306 C20.4584216,22.1063258 19.5353603,22.4678542 18.5621092,22.7000401 Z" id="Combined-Shape"></path>
                        <path d="M16,22 C21.5228475,22 26,17.5228475 26,12 C26,6.4771525 21.5228475,2 16,2 C10.4771525,2 6,6.4771525 6,12 C6,17.5228475 10.4771525,22 16,22 Z M16,24 C9.372583,24 4,18.627417 4,12 C4,5.372583 9.372583,0 16,0 C22.627417,0 28,5.372583 28,12 C28,18.627417 22.627417,24 16,24 Z" id="Oval-2"></path>
                        <path d="M32,38 C32,38.5522847 31.5522847,39 31,39 C30.4477153,39 30,38.5522847 30,38 C30,30.2680135 23.7319865,24 16,24 C8.2680135,24 2,30.2680135 2,38 C2,38.5522847 1.55228475,39 1,39 C0.44771525,39 0,38.5522847 0,38 C0,29.163444 7.163444,22 16,22 C24.836556,22 32,29.163444 32,38 Z" id="Combined-Shape"></path>
                        <path d="M40,38 C40,38.5522847 39.5522847,39 39,39 C38.4477153,39 38,38.5522847 38,38 C38,30.2680135 31.7319865,24 24,24 C23.4477153,24 23,23.5522847 23,23 C23,22.4477153 23.4477153,22 24,22 C32.836556,22 40,29.163444 40,38 Z" id="Combined-Shape"></path>
                        <path d="M48,38 C48,38.5522847 47.5522847,39 47,39 C46.4477153,39 46,38.5522847 46,38 C46,30.2680135 39.7319865,24 32,24 C31.4477153,24 31,23.5522847 31,23 C31,22.4477153 31.4477153,22 32,22 C40.836556,22 48,29.163444 48,38 Z" id="Combined-Shape"></path>
                        <path d="M0,38 C0,37.4477153 0.44771525,37 1,37 C1.55228475,37 2,37.4477153 2,38 L2,44 C2,44.5522847 1.55228475,45 1,45 C0.44771525,45 0,44.5522847 0,44 L0,38 Z" id="Line"></path>
                        <path d="M44,46 C44.5522847,46 45,46.4477153 45,47 C45,47.5522847 44.5522847,48 44,48 L4,48 C3.44771525,48 3,47.5522847 3,47 C3,46.4477153 3.44771525,46 4,46 L44,46 Z" id="Line"></path>
                        <path d="M46,38 C46,37.4477153 46.4477153,37 47,37 C47.5522847,37 48,37.4477153 48,38 L48,44 C48,44.5522847 47.5522847,45 47,45 C46.4477153,45 46,44.5522847 46,44 L46,38 Z" id="Line"></path>
                        <path d="M38,38 C38,37.4477153 38.4477153,37 39,37 C39.5522847,37 40,37.4477153 40,38 L40,47 C40,47.5522847 39.5522847,48 39,48 C38.4477153,48 38,47.5522847 38,47 L38,38 Z" id="Line"></path>
                        <path d="M30,38 C30,37.4477153 30.4477153,37 31,37 C31.5522847,37 32,37.4477153 32,38 L32,47 C32,47.5522847 31.5522847,48 31,48 C30.4477153,48 30,47.5522847 30,47 L30,38 Z" id="Line"></path>
                        <path d="M0,44 C0,43.4477153 0.44771525,43 1,43 C1.55228475,43 2,43.4477153 2,44 C2,45.1045695 2.8954305,46 4,46 C4.55228475,46 5,46.4477153 5,47 C5,47.5522847 4.55228475,48 4,48 C1.790861,48 0,46.209139 0,44 Z" id="Oval-3"></path>
                        <path d="M44,48 C43.4477153,48 43,47.5522847 43,47 C43,46.4477153 43.4477153,46 44,46 C45.1045695,46 46,45.1045695 46,44 C46,43.4477153 46.4477153,43 47,43 C47.5522847,43 48,43.4477153 48,44 C48,46.209139 46.209139,48 44,48 Z" id="Oval-3"></path>
                    </g>
                </g>
            </g>
        </g>
    </g>
</svg>