<?xml version="1.0" encoding="UTF-8"?>
<svg width="100%" height="100%" viewBox="0 0 64 64" version="1.1" xmlns="http://www.w3.org/2000/svg" xmlns:xlink="http://www.w3.org/1999/xlink">
    <!-- Generator: Sketch 48.2 (47327) - http://www.bohemiancoding.com/sketch -->
    <title>render</title>
    <desc>Created with Sketch.</desc>
    <defs>
        <linearGradient x1="100%" y1="100%" x2="0%" y2="0%" id="linearGradient-1">
            <stop stop-color="#24EAC9" offset="0%"></stop>
            <stop stop-color="#00FA9A" offset="100%"></stop>
        </linearGradient>
        <path d="M31.7521577,6.93958468 L31.036989,26.9643085 C31.0172771,27.5162413 31.4487274,27.979651 32.0006603,27.9993629 C32.0125527,27.9997876 32.0244518,28 32.0363518,28 L42.6125741,28 C43.1648589,28 43.6125741,28.4477153 43.6125741,29 C43.6125741,29.1074821 43.5952462,29.2142613 43.5612574,29.3162278 L34.1958885,57.4123346 C34.0212407,57.9362779 33.4549207,58.2194379 32.9309774,58.0447901 C32.5101334,57.9045088 32.2320092,57.5037412 32.2478423,57.0604153 L32.963011,37.0356915 C32.9827229,36.4837587 32.5512726,36.020349 31.9993397,36.0006371 C31.9874473,36.0002124 31.9755482,36 31.9636482,36 L21.3874259,36 C20.8351411,36 20.3874259,35.5522847 20.3874259,35 C20.3874259,34.8925179 20.4047538,34.7857387 20.4387426,34.6837722 L29.8041115,6.58766539 C29.9787593,6.06372207 30.5450793,5.78056208 31.0690226,5.95520986 C31.4898666,6.0954912 31.7679908,6.49625877 31.7521577,6.93958468 Z" id="path-2"></path>
        <filter x="-34.4%" y="-15.3%" width="168.9%" height="130.7%" filterUnits="objectBoundingBox" id="filter-3">
            <feMorphology radius="2" operator="dilate" in="SourceAlpha" result="shadowSpreadOuter1"></feMorphology>
            <feOffset dx="0" dy="0" in="shadowSpreadOuter1" result="shadowOffsetOuter1"></feOffset>
            <feGaussianBlur stdDeviation="2" in="shadowOffsetOuter1" result="shadowBlurOuter1"></feGaussianBlur>
            <feComposite in="shadowBlurOuter1" in2="SourceAlpha" operator="out" result="shadowBlurOuter1"></feComposite>
            <feColorMatrix values="0 0 0 0 0   0 0 0 0 0   0 0 0 0 0  0 0 0 0.16 0" type="matrix" in="shadowBlurOuter1"></feColorMatrix>
        </filter>
    </defs>
    <g id="Features" stroke="none" stroke-width="1" fill="none" fill-rule="evenodd" transform="translate(-84.000000, -541.000000)">
        <g id="render" transform="translate(84.000000, 541.000000)">
            <path d="M21,16 L35,16 C35.5522847,16 36,16.4477153 36,17 L36,31 C36,31.5522847 35.5522847,32 35,32 L21,32 C20.4477153,32 20,31.5522847 20,31 L20,17 C20,16.4477153 20.4477153,16 21,16 Z M25,34 L35,34 C35.5522847,34 36,34.4477153 36,35 L36,45 C36,45.5522847 35.5522847,46 35,46 L25,46 C24.4477153,46 24,45.5522847 24,45 L24,35 C24,34.4477153 24.4477153,34 25,34 Z M39,20 L49,20 C49.5522847,20 50,20.4477153 50,21 L50,31 C50,31.5522847 49.5522847,32 49,32 L39,32 C38.4477153,32 38,31.5522847 38,31 L38,21 C38,20.4477153 38.4477153,20 39,20 Z M11,24 L17,24 C17.5522847,24 18,24.4477153 18,25 L18,31 C18,31.5522847 17.5522847,32 17,32 L11,32 C10.4477153,32 10,31.5522847 10,31 L10,25 C10,24.4477153 10.4477153,24 11,24 Z M9,12 L17,12 C17.5522847,12 18,12.4477153 18,13 L18,21 C18,21.5522847 17.5522847,22 17,22 L9,22 C8.44771525,22 8,21.5522847 8,21 L8,13 C8,12.4477153 8.44771525,12 9,12 Z M39,34 L45,34 C45.5522847,34 46,34.4477153 46,35 L46,41 C46,41.5522847 45.5522847,42 45,42 L39,42 C38.4477153,42 38,41.5522847 38,41 L38,35 C38,34.4477153 38.4477153,34 39,34 Z M1,34 L7,34 C7.55228475,34 8,34.4477153 8,35 L8,41 C8,41.5522847 7.55228475,42 7,42 L1,42 C0.44771525,42 6.76353751e-17,41.5522847 0,41 L0,35 C-6.76353751e-17,34.4477153 0.44771525,34 1,34 Z M39,8 L45,8 C45.5522847,8 46,8.44771525 46,9 L46,15 C46,15.5522847 45.5522847,16 45,16 L39,16 C38.4477153,16 38,15.5522847 38,15 L38,9 C38,8.44771525 38.4477153,8 39,8 Z M21,48 L27,48 C27.5522847,48 28,48.4477153 28,49 L28,55 C28,55.5522847 27.5522847,56 27,56 L21,56 C20.4477153,56 20,55.5522847 20,55 L20,49 C20,48.4477153 20.4477153,48 21,48 Z M53,34 L63,34 C63.5522847,34 64,34.4477153 64,35 L64,45 C64,45.5522847 63.5522847,46 63,46 L53,46 C52.4477153,46 52,45.5522847 52,45 L52,35 C52,34.4477153 52.4477153,34 53,34 Z" id="Combined-Shape" fill="url(#linearGradient-1)"></path>
            <g id="Rectangle-26" stroke-linecap="round" stroke-linejoin="round">
                <use fill="black" fill-opacity="1" filter="url(#filter-3)" xlink:href="#path-2"></use>
                <use fill="url(#linearGradient-1)" fill-rule="evenodd" xlink:href="#path-2"></use>
                <path stroke="#FFFFFF" stroke-width="2" d="M32.7515205,6.97527621 L32.0363518,27 L42.6125741,27 C43.7171436,27 44.6125741,27.8954305 44.6125741,29 C44.6125741,29.2149642 44.5779184,29.4285226 44.5099407,29.6324555 L35.1445718,57.7285624 C34.7952762,58.776449 33.6626363,59.342769 32.6147496,58.9934734 C31.7730616,58.7129108 31.2168133,57.9113756 31.2484795,57.0247238 L31.9636482,37 L21.3874259,37 C20.2828564,37 19.3874259,36.1045695 19.3874259,35 C19.3874259,34.7850358 19.4220816,34.5714774 19.4900593,34.3675445 L28.8554282,6.27143762 C29.2047238,5.22355099 30.3373637,4.65723101 31.3852504,5.00652656 C32.2269384,5.28708924 32.7831867,6.0886244 32.7515205,6.97527621 Z"></path>
            </g>
        </g>
    </g>
</svg>