<?xml version="1.0" encoding="UTF-8"?>
<svg width="100%" height="100%" viewBox="0 0 56 56" version="1.1" xmlns="http://www.w3.org/2000/svg" xmlns:xlink="http://www.w3.org/1999/xlink">
    <!-- Generator: Sketch 48.2 (47327) - http://www.bohemiancoding.com/sketch -->
    <title>responsive</title>
    <desc>Created with Sketch.</desc>
    <defs>
        <linearGradient x1="100%" y1="100%" x2="0%" y2="0%" id="linearGradient-1">
            <stop stop-color="#24EAC9" offset="0%"></stop>
            <stop stop-color="#00FA9A" offset="100%"></stop>
        </linearGradient>
        <path d="M26,10 L26,38 L54,38 L54,10 L26,10 Z M24,6 L56,6 C57.1045695,6 58,6.8954305 58,8 L58,40 C58,41.1045695 57.1045695,42 56,42 L24,42 C22.8954305,42 22,41.1045695 22,40 L22,8 C22,6.8954305 22.8954305,6 24,6 Z" id="path-2"></path>
        <filter x="-16.7%" y="-16.7%" width="133.3%" height="133.3%" filterUnits="objectBoundingBox" id="filter-3">
            <feOffset dx="0" dy="0" in="SourceAlpha" result="shadowOffsetOuter1"></feOffset>
            <feGaussianBlur stdDeviation="2" in="shadowOffsetOuter1" result="shadowBlurOuter1"></feGaussianBlur>
            <feColorMatrix values="0 0 0 0 0   0 0 0 0 0   0 0 0 0 0  0 0 0 0.16 0" type="matrix" in="shadowBlurOuter1"></feColorMatrix>
        </filter>
    </defs>
    <g id="Features" stroke="none" stroke-width="1" fill="none" fill-rule="evenodd" transform="translate(-1054.000000, -259.000000)">
        <g id="responsive" transform="translate(1048.000000, 257.000000)">
            <path d="M8,54 C9.1045695,54 10,54.8954305 10,56 C10,57.1045695 9.1045695,58 8,58 C6.8954305,58 6,57.1045695 6,56 C6,54.8954305 6.8954305,54 8,54 Z M8,30 C9.1045695,30 10,30.8954305 10,32 C10,33.1045695 9.1045695,34 8,34 C6.8954305,34 6,33.1045695 6,32 C6,30.8954305 6.8954305,30 8,30 Z M16,54 C17.1045695,54 18,54.8954305 18,56 C18,57.1045695 17.1045695,58 16,58 C14.8954305,58 14,57.1045695 14,56 C14,54.8954305 14.8954305,54 16,54 Z M8,46 C9.1045695,46 10,46.8954305 10,48 C10,49.1045695 9.1045695,50 8,50 C6.8954305,50 6,49.1045695 6,48 C6,46.8954305 6.8954305,46 8,46 Z M8,22 C9.1045695,22 10,22.8954305 10,24 C10,25.1045695 9.1045695,26 8,26 C6.8954305,26 6,25.1045695 6,24 C6,22.8954305 6.8954305,22 8,22 Z M8,38 C9.1045695,38 10,38.8954305 10,40 C10,41.1045695 9.1045695,42 8,42 C6.8954305,42 6,41.1045695 6,40 C6,38.8954305 6.8954305,38 8,38 Z M8,14 C9.1045695,14 10,14.8954305 10,16 C10,17.1045695 9.1045695,18 8,18 C6.8954305,18 6,17.1045695 6,16 C6,14.8954305 6.8954305,14 8,14 Z M8,6 C9.1045695,6 10,6.8954305 10,8 C10,9.1045695 9.1045695,10 8,10 C6.8954305,10 6,9.1045695 6,8 C6,6.8954305 6.8954305,6 8,6 Z M16,6 C17.1045695,6 18,6.8954305 18,8 C18,9.1045695 17.1045695,10 16,10 C14.8954305,10 14,9.1045695 14,8 C14,6.8954305 14.8954305,6 16,6 Z M24,54 C25.1045695,54 26,54.8954305 26,56 C26,57.1045695 25.1045695,58 24,58 C22.8954305,58 22,57.1045695 22,56 C22,54.8954305 22.8954305,54 24,54 Z M32,54 C33.1045695,54 34,54.8954305 34,56 C34,57.1045695 33.1045695,58 32,58 C30.8954305,58 30,57.1045695 30,56 C30,54.8954305 30.8954305,54 32,54 Z M40,54 C41.1045695,54 42,54.8954305 42,56 C42,57.1045695 41.1045695,58 40,58 C38.8954305,58 38,57.1045695 38,56 C38,54.8954305 38.8954305,54 40,54 Z M48,54 C49.1045695,54 50,54.8954305 50,56 C50,57.1045695 49.1045695,58 48,58 C46.8954305,58 46,57.1045695 46,56 C46,54.8954305 46.8954305,54 48,54 Z M56,54 C57.1045695,54 58,54.8954305 58,56 C58,57.1045695 57.1045695,58 56,58 C54.8954305,58 54,57.1045695 54,56 C54,54.8954305 54.8954305,54 56,54 Z M56,46 C57.1045695,46 58,46.8954305 58,48 C58,49.1045695 57.1045695,50 56,50 C54.8954305,50 54,49.1045695 54,48 C54,46.8954305 54.8954305,46 56,46 Z" id="Combined-Shape" fill="url(#linearGradient-1)"></path>
            <g id="Rectangle-17" fill-rule="nonzero">
                <use fill="black" fill-opacity="1" filter="url(#filter-3)" xlink:href="#path-2"></use>
                <use fill="url(#linearGradient-1)" fill-rule="evenodd" xlink:href="#path-2"></use>
            </g>
            <rect id="Rectangle-19" fill="#FFFFFF" x="26" y="10" width="28" height="28"></rect>
        </g>
    </g>
</svg>