<?xml version="1.0" encoding="UTF-8"?>
<svg width="100%" height="100%" viewBox="0 0 60 54" version="1.1" xmlns="http://www.w3.org/2000/svg" xmlns:xlink="http://www.w3.org/1999/xlink">
    <!-- Generator: Sketch 48.2 (47327) - http://www.bohemiancoding.com/sketch -->
    <title>reusability</title>
    <desc>Created with Sketch.</desc>
    <defs>
        <linearGradient x1="100%" y1="100%" x2="0%" y2="0%" id="linearGradient-1">
            <stop stop-color="#24EAC9" offset="0%"></stop>
            <stop stop-color="#00FA9A" offset="100%"></stop>
        </linearGradient>
        <linearGradient x1="0%" y1="0%" x2="100%" y2="100%" id="linearGradient-2">
            <stop stop-color="#24EAC9" offset="0%"></stop>
            <stop stop-color="#00FA9A" offset="100%"></stop>
        </linearGradient>
        <path d="M26,24 L54,24 C55.1045695,24 56,24.8954305 56,26 L56,36 C56,36.5522847 56.4477153,37 57,37 L61,37 C61.5522847,37 62,37.4477153 62,38 L62,42 C62,42.5522847 61.5522847,43 61,43 L57,43 C56.4477153,43 56,43.4477153 56,44 L56,54 C56,55.1045695 55.1045695,56 54,56 L44,56 C43.4477153,56 43,55.5522847 43,55 L43,51 C43,50.4477153 42.5522847,50 42,50 L38,50 C37.4477153,50 37,50.4477153 37,51 L37,55 C37,55.5522847 36.5522847,56 36,56 L26,56 C24.8954305,56 24,55.1045695 24,54 L24,26 C24,24.8954305 24.8954305,24 26,24 Z" id="path-3"></path>
        <filter x="-15.8%" y="-18.8%" width="131.6%" height="137.5%" filterUnits="objectBoundingBox" id="filter-4">
            <feOffset dx="0" dy="0" in="SourceAlpha" result="shadowOffsetOuter1"></feOffset>
            <feGaussianBlur stdDeviation="2" in="shadowOffsetOuter1" result="shadowBlurOuter1"></feGaussianBlur>
            <feColorMatrix values="0 0 0 0 0   0 0 0 0 0   0 0 0 0 0  0 0 0 0.16 0" type="matrix" in="shadowBlurOuter1"></feColorMatrix>
        </filter>
    </defs>
    <g id="Features" stroke="none" stroke-width="1" fill="none" fill-rule="evenodd" transform="translate(-1054.000000, -547.000000)">
        <g id="reusability" transform="translate(1048.000000, 541.000000)">
            <path d="M8,6 L36,6 C37.1045695,6 38,6.8954305 38,8 L38,18 C38,18.5522847 38.4477153,19 39,19 L43,19 C43.5522847,19 44,19.4477153 44,20 L44,24 C44,24.5522847 43.5522847,25 43,25 L39,25 C38.4477153,25 38,25.4477153 38,26 L38,36 C38,37.1045695 37.1045695,38 36,38 L26,38 C25.4477153,38 25,37.5522847 25,37 L25,33 C25,32.4477153 24.5522847,32 24,32 L20,32 C19.4477153,32 19,32.4477153 19,33 L19,37 C19,37.5522847 18.5522847,38 18,38 L8,38 C6.8954305,38 6,37.1045695 6,36 L6,8 C6,6.8954305 6.8954305,6 8,6 Z" id="Rectangle-24" fill="url(#linearGradient-1)"></path>
            <path d="M14,12 L42,12 C43.1045695,12 44,12.8954305 44,14 L44,24 C44,24.5522847 44.4477153,25 45,25 L49,25 C49.5522847,25 50,25.4477153 50,26 L50,30 C50,30.5522847 49.5522847,31 49,31 L45,31 C44.4477153,31 44,31.4477153 44,32 L44,42 C44,43.1045695 43.1045695,44 42,44 L32,44 C31.4477153,44 31,43.5522847 31,43 L31,39 C31,38.4477153 30.5522847,38 30,38 L26,38 C25.4477153,38 25,38.4477153 25,39 L25,43 C25,43.5522847 24.5522847,44 24,44 L14,44 C12.8954305,44 12,43.1045695 12,42 L12,14 C12,12.8954305 12.8954305,12 14,12 Z" id="Rectangle-24-Copy" fill="url(#linearGradient-2)"></path>
            <path d="M20,18 L48,18 C49.1045695,18 50,18.8954305 50,20 L50,30 C50,30.5522847 50.4477153,31 51,31 L55,31 C55.5522847,31 56,31.4477153 56,32 L56,36 C56,36.5522847 55.5522847,37 55,37 L51,37 C50.4477153,37 50,37.4477153 50,38 L50,48 C50,49.1045695 49.1045695,50 48,50 L38,50 C37.4477153,50 37,49.5522847 37,49 L37,45 C37,44.4477153 36.5522847,44 36,44 L32,44 C31.4477153,44 31,44.4477153 31,45 L31,49 C31,49.5522847 30.5522847,50 30,50 L20,50 C18.8954305,50 18,49.1045695 18,48 L18,20 C18,18.8954305 18.8954305,18 20,18 Z" id="Rectangle-24-Copy" fill="url(#linearGradient-1)"></path>
            <g id="Rectangle-24-Copy">
                <use fill="black" fill-opacity="1" filter="url(#filter-4)" xlink:href="#path-3"></use>
                <use fill="url(#linearGradient-1)" fill-rule="evenodd" xlink:href="#path-3"></use>
            </g>
        </g>
    </g>
</svg>