<?xml version="1.0" encoding="UTF-8"?>
<svg width="48px" height="38px" viewBox="0 0 48 38" version="1.1" xmlns="http://www.w3.org/2000/svg" xmlns:xlink="http://www.w3.org/1999/xlink">
    <!-- Generator: Sketch 47.1 (45422) - http://www.bohemiancoding.com/sketch -->
    <title>Group</title>
    <desc>Created with Sketch.</desc>
    <defs></defs>
    <g id="Page-1" stroke="none" stroke-width="1" fill="none" fill-rule="evenodd">
        <g id="Resources" transform="translate(-372.000000, -583.000000)" fill="#333333">
            <g id="Group-3-Copy-5" transform="translate(340.000000, 523.000000)">
                <g id="Group" transform="translate(32.000000, 52.000000)">
                    <path d="M24,10.0904292 L3.50798724,19 L24,27.9095708 L44.4920128,19 L24,10.0904292 Z M24.3987261,8.08292994 L47.3987261,18.0829299 C48.2004246,18.4314945 48.2004246,19.5685055 47.3987261,19.9170701 L24.3987261,29.9170701 C24.1444076,30.0276433 23.8555924,30.0276433 23.6012739,29.9170701 L0.601273889,19.9170701 C-0.20042463,19.5685055 -0.20042463,18.4314945 0.601273889,18.0829299 L23.6012739,8.08292994 C23.8555924,7.97235669 24.1444076,7.97235669 24.3987261,8.08292994 Z" id="Rectangle-3" fill-rule="nonzero"></path>
                    <path d="M11,24 C11,23.4477153 11.4477153,23 12,23 C12.5522847,23 13,23.4477153 13,24 L13,44 C13,44.5522847 12.5522847,45 12,45 C11.4477153,45 11,44.5522847 11,44 L11,24 Z" id="Line-4" fill-rule="nonzero"></path>
                    <circle id="Oval-3" cx="12" cy="44" r="2"></circle>
                    <path d="M7,22 C7,21.4477153 7.44771525,21 8,21 C8.55228475,21 9,21.4477153 9,22 L9,30 C9,30.5522847 8.55228475,31 8,31 C7.44771525,31 7,30.5522847 7,30 L7,22 Z" id="Line-3" fill-rule="nonzero"></path>
                    <path d="M7,30 C7,29.4477153 7.44771525,29 8,29 C8.55228475,29 9,29.4477153 9,30 C9,33.677566 15.644868,37 24,37 C32.355132,37 39,33.677566 39,30 C39,29.4477153 39.4477153,29 40,29 C40.5522847,29 41,29.4477153 41,30 C41,35.15899 33.31798,39 24,39 C14.68202,39 7,35.15899 7,30 Z" id="Oval-4" fill-rule="nonzero"></path>
                    <path d="M39,22 C39,21.4477153 39.4477153,21 40,21 C40.5522847,21 41,21.4477153 41,22 L41,30 C41,30.5522847 40.5522847,31 40,31 C39.4477153,31 39,30.5522847 39,30 L39,22 Z" id="Line-3" fill-rule="nonzero"></path>
                </g>
            </g>
        </g>
    </g>
</svg>